<?xml version="1.0" encoding="utf-8"?>
<!-- Generator: Adobe Illustrator 27.0.1, SVG Export Plug-In . SVG Version: 6.00 Build 0)  -->
<svg version="1.1" id="Layer_1" xmlns="http://www.w3.org/2000/svg" xmlns:xlink="http://www.w3.org/1999/xlink" x="0px" y="0px"
	 viewBox="0 0 64 64" style="enable-background:new 0 0 64 64;" xml:space="preserve">
<style type="text/css">
	.st0{fill:#1D1D1B;}
</style>
<g>
	<path d="M54.15,20.07c-1.55-2.09-3.38-3.95-5.44-5.53l2.47-4.3c0.39-0.67,0.15-1.53-0.52-1.91l-3.79-2.18
		C46.2,5.77,45.35,6,44.96,6.67l-2.47,4.3c-2.21-0.91-4.53-1.53-6.9-1.84V7.18H37c0.77,0,1.4-0.63,1.4-1.4V1.41
		c0-0.76-0.6-1.38-1.36-1.4L37,0l-0.04,0.01H27c-0.37,0-0.73,0.15-0.99,0.41c-0.26,0.26-0.41,0.62-0.41,0.99v4.37
		c0,0.77,0.63,1.4,1.4,1.4h1.41v1.94c-2.37,0.31-4.69,0.93-6.9,1.84l-2.47-4.3c-0.19-0.32-0.49-0.56-0.85-0.66
		c-0.36-0.1-0.74-0.05-1.06,0.14l-3.79,2.18c-0.67,0.39-0.9,1.24-0.52,1.91l2.47,4.3C9.56,18.91,5.83,25.22,4.76,32.36
		C3.67,39.63,5.47,46.9,9.85,52.82c4.37,5.92,10.79,9.78,18.07,10.87C29.3,63.9,30.68,64,32.06,64c5.85,0,11.52-1.86,16.31-5.4
		c5.92-4.37,9.78-10.79,10.87-18.07C60.33,33.26,58.53,25.99,54.15,20.07z M45.03,12.17l1.66-2.9l1.36,0.78l-1.66,2.9
		C45.95,12.69,45.49,12.42,45.03,12.17z M56.74,36.43c-0.01,6.61-2.58,12.82-7.26,17.49c-4.67,4.67-10.88,7.25-17.49,7.26
		c-13.64,0-24.74-11.1-24.74-24.74c0-13.64,11.1-24.74,24.74-24.74S56.74,22.79,56.74,36.43z M32,8.88c-0.25,0-0.51,0-0.78,0.01
		V7.18h1.57V8.9C32.5,8.89,32.25,8.88,32,8.88z M28.41,4.38V2.81h7.19v1.57H28.41z M17.61,12.96l-1.66-2.9l1.36-0.78l1.66,2.89
		C18.51,12.42,18.05,12.68,17.61,12.96z"/>
	<path d="M42.88,17.9c-0.03-0.02-0.06-0.05-0.09-0.07l-0.04-0.02c-0.03-0.02-0.07-0.03-0.1-0.05c-6.61-3.78-14.8-3.76-21.39,0.06
		c-0.04,0.02-0.07,0.03-0.11,0.05L21.1,17.9c-0.03,0.02-0.05,0.04-0.08,0.06c-3.11,1.85-5.72,4.48-7.56,7.6
		c-0.06,0.07-0.11,0.16-0.14,0.24c-3.78,6.61-3.76,14.8,0.06,21.39c0.01,0.04,0.03,0.07,0.05,0.1l0.01,0.02
		c0.02,0.04,0.05,0.07,0.06,0.09c1.85,3.11,4.48,5.73,7.61,7.57c0.03,0.02,0.06,0.04,0.09,0.07l0.02,0.01
		c0.04,0.02,0.07,0.04,0.1,0.05c3.29,1.89,6.98,2.83,10.66,2.83c3.73,0,7.45-0.97,10.77-2.89c0.03-0.01,0.06-0.03,0.11-0.05
		c0.04-0.02,0.07-0.05,0.1-0.07c3.12-1.86,5.73-4.49,7.57-7.62c0.02-0.02,0.04-0.05,0.07-0.1l0.01-0.01
		c0.02-0.04,0.04-0.07,0.05-0.11c3.78-6.61,3.76-14.8-0.06-21.39c-0.02-0.04-0.03-0.07-0.05-0.11l-0.02-0.04
		c-0.02-0.03-0.04-0.05-0.06-0.08C48.62,22.35,46,19.74,42.88,17.9z M48.78,35.03c-0.77,0-1.4,0.63-1.4,1.4c0,0.77,0.63,1.4,1.4,1.4
		h1.86c-0.17,2.32-0.8,4.62-1.81,6.72l-1.61-0.93c-0.32-0.19-0.7-0.24-1.06-0.14c-0.36,0.1-0.66,0.33-0.85,0.65
		c-0.39,0.67-0.16,1.53,0.51,1.92l1.6,0.93c-1.3,1.89-2.91,3.51-4.79,4.82l-0.94-1.6c-0.39-0.67-1.25-0.89-1.92-0.5
		c-0.67,0.39-0.89,1.25-0.5,1.92l0.94,1.6c-2.12,1.04-4.46,1.68-6.81,1.85v-1.86c0-0.77-0.63-1.4-1.4-1.4c-0.77,0-1.4,0.63-1.4,1.4
		v1.86c-2.32-0.18-4.62-0.8-6.72-1.81l0.93-1.61c0.38-0.67,0.14-1.53-0.54-1.91c-0.67-0.37-1.5-0.15-1.89,0.51l-0.93,1.6
		c-1.89-1.3-3.51-2.91-4.82-4.8l1.6-0.94c0.32-0.19,0.55-0.5,0.64-0.86c0.09-0.36,0.04-0.74-0.15-1.06
		c-0.39-0.66-1.25-0.88-1.91-0.5l-1.6,0.94c-1.04-2.12-1.68-4.46-1.85-6.81h1.86c0.77,0,1.4-0.63,1.4-1.4s-0.63-1.4-1.4-1.4h-1.86
		c0.17-2.35,0.78-4.6,1.81-6.72l1.62,0.93c0.68,0.37,1.53,0.12,1.9-0.55c0.36-0.66,0.14-1.48-0.51-1.88l-1.6-0.93
		c1.3-1.89,2.91-3.51,4.79-4.82l0.94,1.6c0.19,0.32,0.5,0.55,0.86,0.64c0.36,0.09,0.74,0.04,1.06-0.15c0.66-0.39,0.88-1.25,0.5-1.91
		l-0.94-1.6c2.12-1.04,4.46-1.68,6.81-1.85v1.86c0,0.77,0.63,1.4,1.4,1.4c0,0,0,0,0,0c0.77,0,1.4-0.63,1.4-1.4v-1.86
		c2.35,0.17,4.6,0.78,6.72,1.81l-0.93,1.6c-0.4,0.66-0.18,1.53,0.49,1.92c0.66,0.4,1.53,0.18,1.92-0.48
		c0.01-0.01,0.01-0.02,0.02-0.03L42.54,21c1.89,1.3,3.51,2.91,4.82,4.8l-1.6,0.94c-0.67,0.39-0.9,1.25-0.51,1.92
		c0.39,0.67,1.25,0.9,1.91,0.51l1.61-0.95c1.04,2.12,1.68,4.46,1.85,6.81H48.78z"/>
	<path d="M43.74,35.03h-7.24c-0.46-1.47-1.63-2.63-3.09-3.09v-7.24c0-0.77-0.63-1.4-1.4-1.4s-1.4,0.63-1.4,1.4v7.24
		c-2.32,0.72-3.74,3.12-3.2,5.53c0.27,1.23,1.01,2.27,2.07,2.95c0.76,0.48,1.63,0.73,2.51,0.73c0.35,0,0.69-0.04,1.04-0.12
		c1.64-0.37,2.97-1.6,3.47-3.2h7.24c0.77,0,1.4-0.63,1.4-1.4v0C45.14,35.66,44.51,35.03,43.74,35.03z M33.91,36.43
		c0,1.05-0.86,1.91-1.91,1.91c-0.51,0-0.99-0.2-1.35-0.56c-0.36-0.36-0.56-0.84-0.56-1.35c0-1.05,0.86-1.91,1.91-1.91c0,0,0,0,0,0
		C33.05,34.52,33.91,35.38,33.91,36.43z"/>
</g>
</svg>
