<?xml version="1.0" encoding="utf-8"?>
<!-- Generator: Adobe Illustrator 27.0.1, SVG Export Plug-In . SVG Version: 6.00 Build 0)  -->
<svg version="1.1" id="Layer_1" xmlns="http://www.w3.org/2000/svg" xmlns:xlink="http://www.w3.org/1999/xlink" x="0px" y="0px"
	 viewBox="0 0 64 64" style="enable-background:new 0 0 64 64;" xml:space="preserve">
<style type="text/css">
	.st0{fill:#1D1D1B;}
</style>
<g>
	<path d="M13.44,33.97c0.13,7.33,14.54,17.42,14.54,17.42s15.98-9.03,15.94-16.9c-0.02-4.79-4.24-8.63-9.24-8.55
		c-2.92,0.04-5.44,1.43-6.96,3.49c-1.55-2.03-3.99-3.32-6.68-3.28C16.71,26.2,13.35,28.67,13.44,33.97z"/>
	<path d="M60.29,21.65L33.87,0.29c-0.32-0.26-0.74-0.35-1.14-0.25l-6.19,1.55c-0.04,0.01-0.06,0.03-0.1,0.05
		c-0.09,0.03-0.17,0.07-0.25,0.12c-0.07,0.04-0.13,0.08-0.19,0.13c-0.03,0.02-0.06,0.03-0.09,0.06l-7.21,7.5l-0.9-2.57
		c0-0.01-0.02-0.02-0.02-0.04c-0.03-0.09-0.09-0.16-0.14-0.24c-0.04-0.06-0.07-0.13-0.12-0.19c-0.06-0.06-0.13-0.1-0.2-0.15
		c-0.07-0.05-0.13-0.1-0.21-0.14c-0.07-0.03-0.14-0.04-0.22-0.06C16.81,6.03,16.72,6.01,16.62,6c-0.01,0-0.03-0.01-0.04-0.01h-5.14
		c-0.72,0-1.3,0.58-1.3,1.3v11.05l-5.69,5.92c-0.24,0.25-0.37,0.59-0.36,0.93l0.69,32.05c0.01,0.65,0.51,1.19,1.15,1.27l47.21,5.48
		C53.18,64,53.23,64,53.28,64c0,0,0,0,0,0c0.1,0,0.21-0.01,0.32-0.04l6.19-1.55c0.58-0.15,0.99-0.67,0.99-1.26V22.66
		C60.78,22.27,60.6,21.9,60.29,21.65z M51.98,61.23L7.36,56.05L6.7,25.68l5.68-5.9c0.04-0.04,0.06-0.1,0.09-0.15
		c0.06-0.09,0.13-0.17,0.17-0.27c0.04-0.1,0.05-0.21,0.06-0.32c0.01-0.06,0.03-0.11,0.03-0.17V8.6h2.53v4.83
		c0,0.38,0.17,0.71,0.42,0.95c0.01,0.01,0.01,0.03,0.03,0.04c0.52,0.5,1.34,0.48,1.84-0.04l9.4-9.77l25.01,20.22V61.23z
		 M58.17,60.13l-3.58,0.9V24.21c0-0.39-0.18-0.77-0.48-1.01L29.72,3.48l3.02-0.76l25.43,20.56V60.13z"/>
</g>
</svg>
