<?xml version="1.0" encoding="utf-8"?>
<!-- Generator: Adobe Illustrator 27.0.1, SVG Export Plug-In . SVG Version: 6.00 Build 0)  -->
<svg version="1.1" id="Layer_1" xmlns="http://www.w3.org/2000/svg" xmlns:xlink="http://www.w3.org/1999/xlink" x="0px" y="0px"
	 viewBox="0 0 64 64" style="enable-background:new 0 0 64 64;" xml:space="preserve">
<style type="text/css">
	.st0{fill:#1D1D1B;}
</style>
<g>
	<path d="M64.12,24.97c-0.18-0.55-0.69-0.92-1.26-0.92h-7.76v-2.68c0-4.4-3.58-7.97-7.97-7.97h-5.25c-1.37,0-2.69,0.35-3.86,1
		c-0.39-1.03-0.97-1.94-1.68-2.66c0-0.12-0.02-0.24-0.06-0.36l-2.83-8.7c-0.18-0.55-0.69-0.92-1.26-0.92s-1.08,0.37-1.26,0.92
		l-2.98,9.16c-0.67,0.71-1.22,1.58-1.59,2.57c-1.17-0.65-2.49-1-3.86-1h-5.25c-4.4,0-7.97,3.58-7.97,7.97v2.68H1.51
		c-0.57,0-1.08,0.37-1.26,0.92c-0.18,0.55,0.02,1.14,0.48,1.48l18.18,13.21l-0.2,0.62c-0.01,0.01-0.01,0.03-0.01,0.04l-6.73,20.7
		c-0.18,0.55,0.02,1.14,0.48,1.48c0.23,0.17,0.51,0.25,0.78,0.25c0.27,0,0.55-0.08,0.78-0.25L32.18,49.3l18.18,13.21
		c0.46,0.34,1.09,0.34,1.56,0c0.46-0.34,0.66-0.94,0.48-1.48l-6.94-21.37l18.18-13.21C64.1,26.11,64.29,25.51,64.12,24.97z
		 M41.87,16.05h5.25c2.94,0,5.33,2.39,5.33,5.33v9.93l-2.01,1.46v-9.05c0-0.34-0.28-0.62-0.62-0.62c-0.34,0-0.62,0.28-0.62,0.62
		v9.95l-3.42,2.49v-0.17c0-4.1-2.46-7.64-5.98-9.22v-3.04c0-0.34-0.28-0.62-0.62-0.62s-0.62,0.28-0.62,0.62v2.57
		c-0.65-0.19-1.32-0.32-2.01-0.38V22.9c1.24-1.37,2.01-3.31,2.01-5.46c0-0.06-0.01-0.12-0.01-0.18
		C39.49,16.49,40.64,16.05,41.87,16.05z M30.47,25.86v-1.2c0.55,0.18,1.12,0.28,1.71,0.28c0.59,0,1.17-0.1,1.71-0.28v1.2H30.47z
		 M28.51,16.67c0.28-2.32,1.81-4.1,3.67-4.1c1.85,0,3.38,1.78,3.67,4.1c0,0.01,0,0.01,0,0.02c0.03,0.24,0.06,0.49,0.06,0.74
		c0,1.66-0.64,3.12-1.62,4c-0.01,0.01-0.01,0.01-0.02,0.02c-0.6,0.53-1.32,0.84-2.09,0.84s-1.49-0.31-2.09-0.84
		c-0.01-0.01-0.01-0.01-0.02-0.02c-0.97-0.88-1.62-2.34-1.62-4c0-0.25,0.03-0.5,0.06-0.74C28.51,16.68,28.51,16.68,28.51,16.67z
		 M33.03,10c-0.28-0.04-0.56-0.08-0.85-0.08S31.61,9.96,31.33,10l0.85-2.63L33.03,10z M17.24,16.05h5.25c1.22,0,2.37,0.44,3.32,1.2
		c0,0.06-0.01,0.12-0.01,0.18c0,2.15,0.78,4.09,2.01,5.46v3.01c-0.69,0.06-1.36,0.19-2.01,0.38v-2.57c0-0.34-0.28-0.62-0.62-0.62
		s-0.62,0.28-0.62,0.62v3.04c-3.52,1.59-5.98,5.12-5.98,9.22v0.17l-3.42-2.49v-9.95c0-0.34-0.28-0.62-0.62-0.62
		c-0.34,0-0.62,0.28-0.62,0.62v9.05l-2.01-1.46v-9.93C11.92,18.44,14.31,16.05,17.24,16.05z M9.27,26.7v2.68L5.58,26.7H9.27z
		 M18.59,49.2v6.06c0,0.2,0.05,0.38,0.13,0.55l-2.98,2.16L18.59,49.2z M31.4,46.59l-5.64,4.1V39.08c0-0.34-0.28-0.62-0.62-0.62
		s-0.62,0.28-0.62,0.62v11.89c0,0.18,0.08,0.35,0.21,0.46l-3.5,2.54V41.05l0.48-1.49c0.18-0.55-0.02-1.14-0.48-1.48l0,0v-2.1
		c0-4.12,3.35-7.47,7.47-7.47h6.94c4.12,0,7.47,3.35,7.47,7.47v2.1l0,0c-0.46,0.34-0.66,0.94-0.48,1.48l0.49,1.49c0,0,0,0.01,0,0.01
		v12.91l-3.5-2.54c0.13-0.11,0.21-0.27,0.21-0.46V39.08c0-0.34-0.28-0.62-0.62-0.62s-0.62,0.28-0.62,0.62v11.61l-5.64-4.1
		C32.5,46.26,31.87,46.26,31.4,46.59z M45.5,55.71c0.16-0.22,0.27-0.47,0.27-0.76V49.2l2.85,8.77L45.5,55.71z M55.09,29.38V26.7
		h3.69L55.09,29.38z"/>
	<path d="M19.87,13.35c2.84,0,5.14-2.69,5.14-6c0-3.31-2.31-6-5.14-6s-5.14,2.69-5.14,6C14.73,10.66,17.03,13.35,19.87,13.35z
		 M19.87,4c1.35,0,2.5,1.54,2.5,3.35s-1.14,3.35-2.5,3.35c-1.35,0-2.5-1.54-2.5-3.35S18.52,4,19.87,4z"/>
	<path d="M44.49,13.35c2.84,0,5.14-2.69,5.14-6c0-3.31-2.31-6-5.14-6c-2.84,0-5.14,2.69-5.14,6C39.35,10.66,41.66,13.35,44.49,13.35
		z M44.49,4c1.35,0,2.5,1.54,2.5,3.35s-1.14,3.35-2.5,3.35c-1.35,0-2.5-1.54-2.5-3.35S43.14,4,44.49,4z"/>
</g>
</svg>
